<svg id="visual" viewBox="0 0 1920 1080" width="1920" height="1080" xmlns="http://www.w3.org/2000/svg" xmlns:xlink="http://www.w3.org/1999/xlink" version="1.1"><rect x="0" y="0" width="1920" height="1080" fill="#1a4d9a"></rect><defs><linearGradient id="grad1_0" x1="43.8%" y1="0%" x2="100%" y2="100%"><stop offset="14.444444444444446%" stop-color="#1a4d9a" stop-opacity="1"></stop><stop offset="85.55555555555554%" stop-color="#1a4d9a" stop-opacity="1"></stop></linearGradient></defs><defs><linearGradient id="grad2_0" x1="0%" y1="0%" x2="56.3%" y2="100%"><stop offset="14.444444444444446%" stop-color="#1a4d9a" stop-opacity="1"></stop><stop offset="85.55555555555554%" stop-color="#1a4d9a" stop-opacity="1"></stop></linearGradient></defs><g transform="translate(1920, 0)"><path d="M0 972C-130.4 941.3 -260.8 910.6 -346.7 837C-432.6 763.5 -474 647.1 -571.3 571.3C-668.7 495.6 -821.9 460.4 -898 372C-974.1 283.5 -973.1 141.8 -972 0L0 0Z" fill="#535c68"></path></g><g transform="translate(0, 1080)"><path d="M0 -972C132.3 -963.4 264.5 -954.8 372 -898C479.4 -841.3 562.1 -736.4 639.9 -639.9C717.8 -543.5 790.8 -455.4 845.3 -350.2C899.9 -244.9 935.9 -122.5 972 0L0 0Z" fill="#535c68"></path></g></svg>